<svg xmlns="http://www.w3.org/2000/svg" viewBox="0 0 500 500"><defs><style>.cls-1{fill:#1d1d1b;}</style></defs><title>Unbenannt-1</title><g id="Ebene_5" data-name="Ebene 5"><path class="cls-1" d="M417.54,168.29c-7.85-27.38-36.61-36.64-62.39-35.6.61-1.09,1.2-2.17,1.79-3.26,5-9.22,9.27-18.94,10.51-29.45a65.33,65.33,0,0,0-15-49.83c-26-30.32-73.22-33.56-103-7-9.7,8.67-17,19.59-23.47,30.78-.65,1.12-1.28,2.24-1.91,3.36a43.06,43.06,0,0,0-20.21-23.63c-12.19-6.36-26.23-4.31-36.95,4-6,4.65-10.6,10.82-14.74,17.1-6,9.18-11.85,19.19-15.42,29.64a78.89,78.89,0,0,0-3.89,20.53,35.87,35.87,0,0,0-19.77,7.63c-6.44,5.06-11.15,12.08-15.42,19-5.29,8.53-10.37,17.59-13.45,27.18C77.45,199.92,80.62,231.59,105,240c2,.7,8-10.79,8.8-12.24.55-1,7.38-13.33,6.2-13.74-18-6.24-25.23-27-23.78-44.66a59.89,59.89,0,0,1,1.86-10.33l.13-.12a35.56,35.56,0,0,1,6-4.15c9.29-5,20.73-5.47,30-.36,2.22,1.22,15.39-22.76,15-26-1.68-13.9-2.75-28.34.7-42.08l.18-.63c.43-.44.88-.87,1.36-1.28a35.69,35.69,0,0,1,14.71-7.83c22.15-5.4,42,14.39,45,35.15.08.51,3.66-4,3.12-3.28,1.69-2.32,3.19-4.78,4.66-7.25,2.59-4.36,6.46-9.68,7.3-14.79a62.67,62.67,0,0,1,2.47-10.29c0-.14.11-.3.18-.46,4.36-4.72,8.62-9.13,14-12.86a68.14,68.14,0,0,1,43.62-11.93c29.76,2.12,57.74,22.69,64.5,52.4a62.53,62.53,0,0,1,.78,23.92,29.87,29.87,0,0,1-1.28,4.6c-.55.5-1.12,1-1.71,1.49-3.95,3.22-6.75,9.4-9.16,13.72-.61,1.09-5.33,12-5.23,12,22.47-2.23,47.68,2.33,61.53,21.9,5.57,7.87,8.84,17.7,7.59,27.33-.82.7-1.66,1.38-2.52,2a62.93,62.93,0,0,1-16.77,8.94c-11.89,4.29-24.61,6-37.09,7.72q-20.55,2.76-41.28,3.91a531.81,531.81,0,0,1-80-1.62,532.82,532.82,0,0,1-89.82-16.5c-2.19-.59-7.89,10.68-8.8,12.24-.54.94-7.23,13.46-6.2,13.74A533.32,533.32,0,0,0,298.54,256.4q22.51-1.56,44.84-5.06c13-2.05,26.15-4.83,37.67-11.39,13.53-7.7,22.09-20.84,29.32-34.24C416.78,193.85,421.41,181.79,417.54,168.29ZM230.23,72.6a.59.59,0,0,0,0-.13A.69.69,0,0,1,230.23,72.6Zm124.09,55.77.16-.28C354.67,128,354.54,128.15,354.32,128.37Zm48.62,83.7c-.22.79-.49,1.57-.71,2.36C402.46,213.6,402.7,212.81,402.94,212.07Zm3.9-6.77c-.61.64-1.25,1.26-1.9,1.86C408,201,410.71,201.2,406.84,205.3Z"/><path class="cls-1" d="M120.29,297.28l-1.5,1.5a7.73,7.73,0,0,0-2.19,5.31,8.28,8.28,0,0,0,2.19,5.3,7.57,7.57,0,0,0,5.31,2.2,7.8,7.8,0,0,0,5.3-2.2l1.5-1.5a7.74,7.74,0,0,0,2.2-5.3,8.42,8.42,0,0,0-2.2-5.31,7.55,7.55,0,0,0-5.3-2.19,7.86,7.86,0,0,0-5.31,2.19Z"/><path class="cls-1" d="M227.59,304.09v-1.5a7.73,7.73,0,0,0-2.19-5.31,5.73,5.73,0,0,0-2.42-1.55,5.63,5.63,0,0,0-2.89-.64,7.54,7.54,0,0,0-5.3,2.19,7.81,7.81,0,0,0-2.2,5.31v1.5a7.74,7.74,0,0,0,2.2,5.3,5.6,5.6,0,0,0,2.41,1.55,5.66,5.66,0,0,0,2.89.65,7.64,7.64,0,0,0,5.31-2.2,7.82,7.82,0,0,0,2.19-5.3Z"/><path class="cls-1" d="M175.09,352.09c9.66,0,9.67-15,0-15s-9.66,15,0,15Z"/><path class="cls-1" d="M176.59,301.09c9.66,0,9.67-15,0-15s-9.66,15,0,15Z"/><path class="cls-1" d="M319.09,361.09c9.65,0,9.66-15,0-15s-9.67,15,0,15Z"/><path class="cls-1" d="M245.59,386.58c9.65,0,9.67-15,0-15s-9.67,15,0,15Z"/><path class="cls-1" d="M245.59,346.09c9.65,0,9.67-15,0-15s-9.67,15,0,15Z"/><path class="cls-1" d="M332.59,281.59c9.65,0,9.66-15,0-15s-9.67,15,0,15Z"/><path class="cls-1" d="M383.58,347.59c9.66,0,9.67-15,0-15s-9.66,15,0,15Z"/><path class="cls-1" d="M341.59,428.58c9.65,0,9.66-15,0-15s-9.67,15,0,15Z"/><path class="cls-1" d="M191.59,415.08v-1.5a7.73,7.73,0,0,0-2.19-5.3,8.42,8.42,0,0,0-5.31-2.2,7.6,7.6,0,0,0-5.3,2.2,7.78,7.78,0,0,0-2.2,5.3v1.5a7.74,7.74,0,0,0,2.2,5.31,8.28,8.28,0,0,0,5.3,2.19,7.57,7.57,0,0,0,5.31-2.19,7.84,7.84,0,0,0,2.19-5.31Z"/><path class="cls-1" d="M113.6,356.59c9.65,0,9.67-15,0-15s-9.67,15,0,15Z"/><path class="cls-1" d="M133.1,406.08c9.65,0,9.66-15,0-15s-9.67,15,0,15Z"/><path class="cls-1" d="M278.59,434.58v-1.5a7.74,7.74,0,0,0-2.2-5.3,8.36,8.36,0,0,0-5.3-2.2,7.6,7.6,0,0,0-5.3,2.2,7.78,7.78,0,0,0-2.2,5.3v1.5a7.74,7.74,0,0,0,2.2,5.3,5.62,5.62,0,0,0,2.41,1.56,5.73,5.73,0,0,0,2.89.64,7.55,7.55,0,0,0,5.3-2.2,7.77,7.77,0,0,0,2.2-5.3Z"/><path class="cls-1" d="M310.09,403.08c9.65,0,9.67-15,0-15s-9.67,15,0,15Z"/><path class="cls-1" d="M143.6,475.08c9.65,0,9.66-15,0-15s-9.67,15,0,15Z"/><path class="cls-1" d="M97.1,440.58h1.5a7.74,7.74,0,0,0,5.3-2.2,5.54,5.54,0,0,0,1.55-2.41,5.64,5.64,0,0,0,.65-2.89,7.6,7.6,0,0,0-2.2-5.3,7.78,7.78,0,0,0-5.3-2.2H97.1a7.76,7.76,0,0,0-5.31,2.2,8.28,8.28,0,0,0-2.19,5.3,7.54,7.54,0,0,0,2.19,5.3,7.81,7.81,0,0,0,5.31,2.2Z"/></g></svg>