<svg id="Ebene_1" data-name="Ebene 1" xmlns="http://www.w3.org/2000/svg" viewBox="0 0 500 500"><defs><style>.cls-1{fill:#1d1d1b;}</style></defs><title>Unbenannt-1</title><path class="cls-1" d="M478,299.34c-11.09-37.26-50.62-49.8-85.88-48.17,2.09-3.52,4.05-7.11,5.93-10.69,6-11.52,10.56-23.63,11.74-36.65a89,89,0,0,0-21.35-66.38c-16.94-19.28-41.63-31.38-67.12-33.67a96.73,96.73,0,0,0-70.68,22.65c-12.77,10.71-22.45,24.35-30.82,38.64-2.16,3.69-4.23,7.43-6.17,11.23-7.9-22.69-29.76-41.76-54.76-38.28-14.16,2-26.17,10.72-35,21.62-12,14.85-22.24,33.07-27,51.64a115.13,115.13,0,0,0-3.31,29.21,47,47,0,0,0-20.8,3.86c-15.36,6.56-25,20.48-33.12,34.5-14.39,24.92-22.87,53.93-11.55,81.82,5.16,12.72,14.43,23.41,27.66,27.91,2,.68,8-10.79,8.8-12.24.56-1,7.37-13.35,6.2-13.74-26.22-8.92-35.44-40.27-32.16-65.37a86.41,86.41,0,0,1,2.07-10.68c.44-1.7,1-3.37,1.54-5,.92-1,1.87-2,2.87-2.87a48.3,48.3,0,0,1,8.34-6.09c12.92-7.44,29.28-8.56,42.45-1.2,2.18,1.22,15.39-22.76,15-26-2.39-19.72-3.87-40.23,1.4-59.64.42-1.55.91-3.09,1.45-4.61,1.07-1.24,2.18-2.42,3.37-3.55a51.36,51.36,0,0,1,19.88-12C168,156,197,183.44,201.27,213c.07.51,3.66-4,3.11-3.28,1.69-2.32,3.2-4.78,4.67-7.25,2.58-4.35,6.48-9.69,7.3-14.79a87.61,87.61,0,0,1,3.72-15.16c.69-2,1.47-3.88,2.3-5.78.17-.4.28-.66.35-.85,2.3-2.8,6.11-6.47,6.76-7.14a100.8,100.8,0,0,1,13-11.23,93.79,93.79,0,0,1,60.92-17.93c42.61,2.58,82.34,32.75,90.17,75.68a85.53,85.53,0,0,1-.44,33,63.87,63.87,0,0,1-2.08,7.58l-.07.08a58.71,58.71,0,0,1-6.55,6.06c-4,3.2-6.77,9.41-9.16,13.71-.61,1.1-5.32,12-5.23,12,31.16-3.15,66.37,3.48,85,31.12,8.14,12.06,12.35,27.24,8.71,41.62a64.5,64.5,0,0,1-5.84,5.38A82.46,82.46,0,0,1,437.21,368c-16.41,6.81-34.35,9.38-51.83,11.82q-28.11,3.93-56.47,5.63a728.22,728.22,0,0,1-111.5-1.87A729.37,729.37,0,0,1,92.86,360.83c-2.18-.6-7.89,10.68-8.79,12.24-.55.94-7.24,13.46-6.21,13.74a729.78,729.78,0,0,0,239.83,24.37q30.21-2,60.18-6.47c18.45-2.78,37.21-6.27,53.83-15.16,17.39-9.31,28.72-24.77,38-41.78C478.08,332.39,483.15,316.67,478,299.34ZM114.56,178.81c.8-1.88,1.36-2.4,0,0ZM221,168.91c-.19-.41.4-1.4,1.35-2.6C221.79,167.32,221,168.91,221,168.91Z"/></svg>