<svg xmlns="http://www.w3.org/2000/svg" viewBox="0 0 500 500"><defs><style>.cls-1{fill:#1d1d1b;}</style></defs><title>Unbenannt-1</title><g id="Ebene_2" data-name="Ebene 2"><path class="cls-1" d="M486.1,344.92c-7.85-27.38-36.61-36.64-62.39-35.6l1.79-3.25c5-9.23,9.26-18.95,10.51-29.46a65.33,65.33,0,0,0-15-49.83c-20.46-23.81-53.94-30.91-81.78-20a3.15,3.15,0,0,0,0-.68c-2.13-22.67-24.85-32-44.91-32.89a179.59,179.59,0,0,0-69.07,10.6c-19.72,7.28-37.45,18.87-51.15,34.89-9,10.54-16.32,22.63-22.66,34.92-5,9.68-9.24,19.86-11.13,30.64-3.82,21.75,1.38,45.14,16.1,61.86a87,87,0,0,0-3.61,9.21c-6.82,21.21-3.64,52.88,20.76,61.33,2,.7,8-10.79,8.79-12.24.56-1,7.38-13.33,6.21-13.74-18-6.24-25.23-27-23.78-44.66a59.89,59.89,0,0,1,1.86-10.33l.13-.12a35.17,35.17,0,0,1,6-4.15c9.29-5,20.73-5.47,30-.35,2.22,1.21,15.38-22.77,15-26-1.68-13.9-2.75-28.34.7-42.08.05-.21.12-.42.18-.62a18.48,18.48,0,0,1,1.36-1.29,35.59,35.59,0,0,1,14.7-7.83c22.16-5.4,42,14.39,45,35.15.07.52,3.65-4,3.11-3.28,1.69-2.32,3.2-4.78,4.67-7.25,2.59-4.36,6.46-9.68,7.3-14.79a61.67,61.67,0,0,1,2.47-10.29c.05-.14.11-.3.18-.46,4.36-4.72,8.62-9.13,14-12.86a68.13,68.13,0,0,1,43.61-11.93C385,229.68,413,250.25,419.71,280a62.53,62.53,0,0,1,.77,23.92,28.73,28.73,0,0,1-1.27,4.6c-.55.5-1.12,1-1.71,1.49-3.95,3.22-6.76,9.4-9.16,13.72-.61,1.09-5.33,12-5.23,12,22.46-2.23,47.67,2.33,61.53,21.9,5.57,7.87,8.83,17.7,7.59,27.33-.82.7-1.66,1.38-2.52,2a62.93,62.93,0,0,1-16.77,8.94c-11.89,4.29-24.62,6-37.09,7.72q-20.55,2.76-41.28,3.91a531.94,531.94,0,0,1-80-1.62,532.89,532.89,0,0,1-89.81-16.5c-2.19-.59-7.9,10.68-8.8,12.24-.54.94-7.23,13.46-6.2,13.75A533.58,533.58,0,0,0,367.1,433c15-1,30-2.71,44.84-5.06,13-2.05,26.15-4.82,37.67-11.39,13.53-7.7,22.08-20.84,29.32-34.24C485.33,370.48,490,358.42,486.1,344.92ZM298.79,249.23s0-.09,0-.13A.69.69,0,0,1,298.79,249.23Zm-4.21,1.34c-.64,1.11-1.27,2.23-1.9,3.35a43.06,43.06,0,0,0-20.21-23.63c-12.19-6.36-26.23-4.31-37,4-6,4.65-10.61,10.82-14.74,17.1-6,9.18-11.85,19.19-15.42,29.64a78.47,78.47,0,0,0-3.89,20.53,35.93,35.93,0,0,0-19.78,7.63,53.62,53.62,0,0,0-10.17,11c-11.75-13.29-17.59-30.8-17.22-48.49a72.73,72.73,0,0,1,5.09-26,1.47,1.47,0,0,1,.06-.14,97.33,97.33,0,0,1,8.18-9.27c28.31-27.82,70.34-38.07,109.1-37.26,15.48.33,34.74,5.51,43.2,19.08-.63.52-1.26,1-1.87,1.59C308.35,228.45,301.06,239.38,294.58,250.57ZM422.88,305l.16-.28C423.23,304.63,423.09,304.78,422.88,305Zm48.62,83.7c-.22.79-.5,1.57-.71,2.36C471,390.23,471.25,389.44,471.5,388.7Zm3.9-6.77c-.61.64-1.25,1.26-1.9,1.86C476.59,377.61,479.27,377.83,475.4,381.93Z"/><path class="cls-1" d="M116.58,316.28a209.29,209.29,0,0,0-91.81,28.06c-1.53.9-3.37,4.25-4.22,5.52-2.12,3.21-4.08,6.56-5.91,9.94-1.39,2.57-3.08,5.29-3.89,8.11-.16.56-1.13,2.68.25,1.88a206.29,206.29,0,0,1,90.58-27.53c1.09-.07,2.77-2.8,3.11-3.27a101.18,101.18,0,0,0,5.69-9,101.32,101.32,0,0,0,4.92-9.41C115.47,320.24,117.05,316.25,116.58,316.28Z"/><path class="cls-1" d="M143.66,185.35c-15.09-1.47-30.22-2.34-45.37-2.52q-10.86-.14-21.73.19c-5.54.16-13.53-1-17.93,3.18s-7.32,10.25-10.13,15.45c-1.39,2.57-3.08,5.3-3.89,8.11-.08.29-1,3.09.25,1.89,4.19-4,13.34-2.57,18.67-2.71q10.88-.27,21.74-.11c14.49.23,29,1.09,43.39,2.5,2.65.26,7.69-10.32,8.79-12.24C138,198.13,144.23,185.41,143.66,185.35Z"/><path class="cls-1" d="M175.19,143.2l-.05.07Z"/><path class="cls-1" d="M160.22,36a.43.43,0,0,0,0-.07S160.21,36,160.22,36Z"/><path class="cls-1" d="M172,146.55c.16.52,3.2-3.41,3.17-3.35a101.59,101.59,0,0,0,5.63-8.89,101.41,101.41,0,0,0,4.93-9.41c.52-1.18,1.66-3,1.27-4.33q-12.21-42-22.79-84.54a2.11,2.11,0,0,0,0-1.2c-.27-.73-.55-1.45-.82-2.17-.2-.52-3.14,3.33-3.16,3.34a99.55,99.55,0,0,0-5.64,8.9,101.41,101.41,0,0,0-4.93,9.41c-.54,1.21-1.61,3-1.27,4.33Q159.32,102.83,172,146.55Zm-19.7-89,.05-.06Z"/><path class="cls-1" d="M253.15,149.16c2-2,3.63-5.07,5.08-7.42,3.08-5,6.94-10.68,8.32-16.5q11.11-46.95,20.29-94.34c.36-1.85-1.9.89-1.75.74-2,2-3.64,5.07-5.08,7.42-3,4.87-7.2,10.74-8.32,16.5q-9.18,47.37-20.3,94.33C250.94,151.81,253.42,148.88,253.15,149.16Z"/><path class="cls-1" d="M328.59,162.2a298.12,298.12,0,0,1,38-29.92q10.09-6.68,20.72-12.51,5.31-2.92,10.73-5.61a100.94,100.94,0,0,1,9.8-4.19c0,.37,0,.64.23.76l.39.26.61-.27c3.77-3.07,6.31-8.25,8.7-12.39,2.12-3.67,6.46-9.23,6.25-13.7L424,84c-2.86-.9-7.27,2.36-9.81,3.59q-5.83,2.84-11.54,5.93Q392,99.25,381.82,105.88a298.64,298.64,0,0,0-39.46,30.87c-4.37,4-7.34,10.28-10.13,15.45-1.39,2.57-3.09,5.3-3.89,8.11C328.26,160.61,327.31,163.38,328.59,162.2Z"/><path class="cls-1" d="M400.19,177.11a98.8,98.8,0,0,0-4.92,9.4,33.21,33.21,0,0,0-1.28,4.34,217,217,0,0,1,61.62-14.39c1.1-.1,2.75-2.77,3.11-3.28a99.59,99.59,0,0,0,5.69-9,101.32,101.32,0,0,0,4.92-9.41c.17-.38,1.73-4.37,1.28-4.33A217,217,0,0,0,409,164.87C405.23,166.35,402.1,173.81,400.19,177.11Z"/></g></svg>