<svg xmlns="http://www.w3.org/2000/svg" viewBox="0 0 500 500"><defs><style>.cls-1{fill:#1d1d1b;}</style></defs><title>Unbenannt-1</title><g id="Ebene_4_Kopie" data-name="Ebene 4 Kopie"><path class="cls-1" d="M244.21,321.14c-4.51,4.67-7.83,11.79-10.73,17.51l-15.18,29.9c-.44.89-4.94,9.86-.91,5.69,4.51-4.67,7.83-11.78,10.73-17.5q7.59-15,15.17-29.91C243.74,325.94,248.24,317,244.21,321.14Z"/><path class="cls-1" d="M295.82,358.94c7.33-7,12.78-15.59,17.77-24.35s9.54-17.88,11.39-27.86c.34-1.84-1.89.86-1.76.73-2,2-3.63,5.07-5.08,7.42-3,4.85-7.25,10.76-8.32,16.5a26,26,0,0,1-.65,2.55c-4.1,4.13-7,10-9.71,15-1.39,2.57-3.08,5.3-3.89,8.11C295.49,357.34,294.55,360.15,295.82,358.94Z"/><path class="cls-1" d="M269.11,356.83a95.39,95.39,0,0,0-9.79,18,232.59,232.59,0,0,1-20.16,40.75c-2,3.23-3.94,6.66-5.65,10.08-.27.54-3,5.36-2.67,6.42s.84.22,1.76-.73c2-2.11,3.53-5,5.08-7.42a403.27,403.27,0,0,0,35.9-70.78C275.71,347.65,269.51,356.22,269.11,356.83Z"/><path class="cls-1" d="M381.93,301.5c-4.34,5.05-7.79,11.57-10.73,17.51l-8.91,18c-.35.72-4.77,10.17-.91,5.69,4.34-5.05,7.79-11.57,10.73-17.51l8.91-18C381.37,306.48,385.79,297,381.93,301.5Z"/><path class="cls-1" d="M326.22,380.87a96,96,0,0,0-9.8,18c-2.26,5.88-4.7,11.68-7.45,17.35-2.43,5-4.93,9.45-7,12.76s-3.94,6.64-5.65,10.09c-.27.54-3.05,5.35-2.67,6.41s.83.23,1.75-.73c2-2.1,3.58-5,5.08-7.42a367.49,367.49,0,0,0,30.16-60.14C332.82,371.69,326.62,380.26,326.22,380.87Z"/><path class="cls-1" d="M362.83,378.21c-4.53,4.69-7.77,11.78-10.72,17.5a58.82,58.82,0,0,1-4.64,7.43,165,165,0,0,1-10.78,13.66c-4.4,5.09-7.73,11.51-10.72,17.5-.67,1.35-4.61,10-.92,5.69,14.71-17,26.58-36.18,36.87-56.1C362.38,383,366.86,374,362.83,378.21Z"/><path class="cls-1" d="M266.35,430.41a94.87,94.87,0,0,0-9.8,18c-.18.49-.91,2.09-1.39,3.23.68-1.05,1.68-2-.17.41a2.78,2.78,0,0,0-.25.8c-.08-.11,0-.31.06-.55l-.45.59a103.87,103.87,0,0,0-10.73,17.51c-.64,1.28-4.39,10.15-.91,5.68a194.43,194.43,0,0,0,28.11-49.34C272.93,421.23,266.75,429.8,266.35,430.41Z"/><path class="cls-1" d="M255.16,451.68a4.91,4.91,0,0,0-.36.66c.06-.08.14-.17.19-.25Z"/><path class="cls-1" d="M431.22,192.75c-7.85-27.38-36.61-36.63-62.39-35.6.61-1.08,1.21-2.17,1.8-3.25,5-9.23,9.26-18.94,10.5-29.46a65.25,65.25,0,0,0-15-49.82c-26.05-30.32-73.21-33.57-103-7-9.7,8.67-17,19.59-23.47,30.78-.64,1.11-1.28,2.23-1.9,3.36A43.08,43.08,0,0,0,217.6,78.12c-12.19-6.36-26.24-4.3-36.95,4-6,4.65-10.61,10.83-14.74,17.11-6,9.17-11.86,19.19-15.42,29.64a78.42,78.42,0,0,0-3.9,20.52A36,36,0,0,0,126.82,157c-6.43,5.07-11.14,12.09-15.41,19C106.12,184.53,101,193.58,98,203.18c-6.82,21.2-3.65,52.87,20.75,61.33,2,.69,8-10.8,8.8-12.24.56-1,7.38-13.33,6.2-13.74-18-6.24-25.23-27-23.77-44.66a59.22,59.22,0,0,1,1.85-10.34l.13-.12a34.64,34.64,0,0,1,6-4.14c9.29-5.05,20.72-5.47,30-.36,2.22,1.22,15.39-22.77,15-26-1.67-13.91-2.75-28.35.71-42.08.05-.21.11-.42.17-.63.44-.44.89-.88,1.37-1.29a35.71,35.71,0,0,1,14.7-7.83c22.16-5.39,42,14.39,45,35.15.08.52,3.66-4,3.12-3.27,1.69-2.33,3.2-4.79,4.66-7.26,2.59-4.35,6.46-9.68,7.3-14.79a61.7,61.7,0,0,1,2.48-10.29,4.51,4.51,0,0,1,.17-.46c4.36-4.71,8.62-9.13,14-12.85a68,68,0,0,1,43.61-11.94c29.76,2.12,57.74,22.7,64.51,52.4a62.78,62.78,0,0,1,.77,23.93,31.2,31.2,0,0,1-1.27,4.59c-.56.51-1.12,1-1.72,1.49-3.95,3.23-6.75,9.4-9.16,13.72-.61,1.09-5.32,12-5.22,12,22.46-2.23,47.67,2.33,61.52,21.91,5.57,7.86,8.84,17.69,7.59,27.32-.82.7-1.66,1.38-2.51,2a62.51,62.51,0,0,1-16.77,8.94c-11.9,4.3-24.62,6-37.1,7.72q-20.55,2.77-41.27,3.91a533.26,533.26,0,0,1-80-1.61,534.9,534.9,0,0,1-89.81-16.5c-2.19-.6-7.9,10.67-8.8,12.24-.55.94-7.23,13.46-6.2,13.74q4.3,1.17,8.62,2.27Q124,287.52,106,310.78a104.25,104.25,0,0,0-9.07,14.33c-.44.81-5,10.14-4.25,10.26l46.26,7.14q-32.05,53.91-64.1,107.84a73.58,73.58,0,0,0-5.38,10.49c-.15.39-1.6,4.26-.21,3A1353.84,1353.84,0,0,0,202,323.19c1.63-2,15.44-23.61,13.32-24.58L186.8,285.43l1.27-1.24a39,39,0,0,0,6.21-8.31,531.91,531.91,0,0,0,117.94,5c15-1,30-2.7,44.85-5.05,13-2.05,26.14-4.83,37.67-11.39,13.52-7.71,22.08-20.84,29.31-34.25C430.46,218.31,435.09,206.26,431.22,192.75ZM243.91,97.07a1.3,1.3,0,0,1,0-.13A1.11,1.11,0,0,1,243.91,97.07ZM368,152.83a3,3,0,0,1,.17-.27C368.36,152.46,368.22,152.62,368,152.83ZM178,281.91c-1.91,1.85-16.61,24.69-14.39,25.71l31.52,14.55A1332.71,1332.71,0,0,1,88.36,433.38Q118.93,382,149.49,330.54c.43-.72,7.08-13.6,6.2-13.74l-42.36-6.53q17.55-21.13,36.34-41.18c.51-.54,1-1.11,1.47-1.7q17.13,4.11,34.5,7.08Zm238.64-45.38c-.21.8-.49,1.57-.71,2.36C416.14,238.06,416.38,237.27,416.62,236.53Zm3.9-6.76c-.6.64-1.24,1.25-1.9,1.85C421.72,225.45,424.4,225.67,420.52,229.77Z"/><path class="cls-1" d="M176.51,397.88l-27.16,38.89a110.81,110.81,0,0,0-10.61,18.37c-.25.57-2,3.93-1.28,4.34s3.12-3.28,3.12-3.28l27.16-38.88A111.88,111.88,0,0,0,178.34,399c.26-.57,2-3.93,1.28-4.34S176.51,397.88,176.51,397.88Z"/><path class="cls-1" d="M209.36,415.78,202,426.38a107.91,107.91,0,0,0-10.6,18.37c-.25.57-2,3.92-1.28,4.33s3.11-3.27,3.11-3.27l7.37-10.6a107.91,107.91,0,0,0,10.6-18.37c.25-.57,2-3.92,1.28-4.33S209.36,415.78,209.36,415.78Z"/></g></svg>