<svg xmlns="http://www.w3.org/2000/svg" viewBox="0 0 500 500"><defs><style>.cls-1{fill:#1d1d1b;}</style></defs><title>Unbenannt-1</title><g id="Ebene_3" data-name="Ebene 3"><path class="cls-1" d="M362,263.23c3.21-23.12-.94-47.16-12.5-67.49-.27-.48-8.23,11.25-8.8,12.24a98.8,98.8,0,0,0-4.92,9.4c-.43,1-1.86,3.32-1.28,4.34a103.47,103.47,0,0,1,13.34,54.41,107.83,107.83,0,0,1-4.36,27.52c-.57,1.88-1.21,3.74-1.89,5.58-.23.63-.59,1.89-1,3.12-.31.29-1.83,2.59-2.25,3.12-23,28.42-63.06,41.2-98.56,34.93-37.38-6.61-68.76-35.29-81.25-70.78A92.94,92.94,0,0,1,153,245.94a77.29,77.29,0,0,1,2-15.51,64.13,64.13,0,0,1,1.92-6.48c.16-.44.87-2,1.3-3a3.13,3.13,0,0,1,.23-.31c1.65-2.19,3.45-4.3,5.28-6.34a109.58,109.58,0,0,1,10.55-10.23,124.17,124.17,0,0,1,23.6-15.92c19.17-9.93,41.31-14.72,62.84-12.09,19.86,2.41,42.88,11.82,48.94,32.79.15.52,3.19-3.41,3.17-3.34a104.17,104.17,0,0,0,5.63-8.9,101.15,101.15,0,0,0,4.92-9.4c.53-1.18,1.66-3,1.28-4.34-6.06-21-29.08-30.38-48.94-32.79-21-2.57-42.38,2-61.31,11.24-20.13,9.8-36.91,25-49.66,43.34-15.85,22.79-29.34,48.73-26.53,77.24,4.26,43.24,37.26,82.26,79.49,92.95,39.61,10,83.91-4.93,109.41-36.79C344.08,316.9,358.22,290.39,362,263.23Zm-21.8,50.07a5.27,5.27,0,0,1-1.1,1.89A6.2,6.2,0,0,0,340.19,313.3Z"/><path class="cls-1" d="M312.83,205.53l-.06.07S312.82,205.53,312.83,205.53Z"/><path class="cls-1" d="M279.93,136a479.76,479.76,0,0,1,78.74-65.25c1.59-1.06,3.27-4.08,4.22-5.52,2.12-3.2,4.09-6.55,5.91-9.93,1.39-2.57,3.08-5.3,3.89-8.11.14-.49,1.12-2.79-.25-1.89a480.18,480.18,0,0,0-78.74,65.25c-4.24,4.35-7.26,10.14-10.13,15.45-1.39,2.57-3.08,5.3-3.89,8.11C279.61,134.39,278.7,137.29,279.93,136Z"/><path class="cls-1" d="M343.13,154.37a103.62,103.62,0,0,0-4.92,9.4c-.18.41-1.52,4.42-1.28,4.34L421,141.37c3.65-1.16,7-9.17,8.8-12.24a99,99,0,0,0,4.92-9.41c.18-.4,1.53-4.41,1.28-4.33l-84.08,26.74C348.29,143.29,344.91,151.29,343.13,154.37Z"/><path class="cls-1" d="M250,391.52c-2,2-3.63,5.07-5.07,7.42-3.14,5.08-6.78,10.65-8.32,16.5A547.05,547.05,0,0,1,212,488.07c.11-.26-1.94,3.95-1.28,4.33s3.28-3.5,3.12-3.27a95.23,95.23,0,0,0,10.61-18.38,601.08,601.08,0,0,0,27.36-80C252.3,388.83,249.68,391.87,250,391.52Z"/><path class="cls-1" d="M164.55,359.52c-12.52,1.24-24.25,5.5-35.69,10.54-12.43,5.47-24.68,11.4-37,17.18q-37.62,17.68-75,35.8c-1.45.7-3.51,4.45-4.22,5.52-2.13,3.21-4.09,6.56-5.91,9.94-1.39,2.57-3.09,5.29-3.89,8.11-.19.66-1.13,2.55.25,1.88q36.53-17.67,73.25-35C88.1,408,99.85,402.38,111.71,397c12.1-5.48,24.53-10.2,37.84-11.52,1.12-.11,2.73-2.75,3.12-3.27a103.42,103.42,0,0,0,5.68-9,99,99,0,0,0,4.92-9.41C163.44,363.48,165,359.48,164.55,359.52Z"/><path class="cls-1" d="M339.5,364.44c-2,2-3.64,5.07-5.08,7.42-2,3.28-3.93,6.64-5.65,10.08-.83,1.67-2.85,4.56-2.67,6.42,3.36,34,34.78,62.11,28.3,97.53-.33,1.84,1.88-.85,1.76-.73,2-2,3.63-5.07,5.08-7.42,3-4.84,7.27-10.76,8.32-16.5,6.56-35.89-24.92-63.32-28.31-97.53C341.11,362.27,340,363.88,339.5,364.44Z"/><path class="cls-1" d="M497.85,348.75l-94.91-30.19c-2.08-.66-7.94,10.75-8.8,12.24-.55.95-7.33,13.38-6.2,13.74l94.91,30.19c2.07.67,7.93-10.74,8.79-12.24C492.2,361.54,499,349.11,497.85,348.75Z"/><path class="cls-1" d="M412.23,247.69a98.8,98.8,0,0,0-4.92,9.4,26.6,26.6,0,0,0-1.28,4.34,310.68,310.68,0,0,1,70.59-15.94c1.12-.12,2.72-2.74,3.12-3.28a101.76,101.76,0,0,0,5.68-9,99,99,0,0,0,4.92-9.41c.17-.37,1.72-4.38,1.28-4.33A310.68,310.68,0,0,0,421,235.45C417.33,236.75,414.06,244.51,412.23,247.69Z"/><path class="cls-1" d="M211.27,138.69c2-2,3.63-5.07,5.08-7.42,2-3.28,3.93-6.64,5.65-10.08.9-1.81,2.67-4.39,2.67-6.42v-96c0-1.57-1.42.39-1.76.74-2,2-3.63,5.07-5.08,7.41-2,3.28-3.93,6.64-5.65,10.09-.9,1.81-2.67,4.39-2.67,6.42v96C209.51,141,210.94,139,211.27,138.69Z"/><path class="cls-1" d="M151.25,177.47c.8.83,8.24-11.27,8.8-12.24.91-1.58,7.9-12,6.2-13.74-25.12-26-28.15-68.48-60.09-88.57-1.56-1-17.23,24.58-15,26C123.1,109,126.13,151.51,151.25,177.47Z"/><path class="cls-1" d="M4.13,272.38a262.28,262.28,0,0,1,96.2,9.4c2.15.63,7.91-10.7,8.8-12.24.55-.94,7.27-13.43,6.2-13.74a262.28,262.28,0,0,0-96.2-9.4c-1.11.1-2.74,2.77-3.11,3.28a99.59,99.59,0,0,0-5.69,9,99,99,0,0,0-4.92,9.41C5.24,268.43,3.68,272.42,4.13,272.38Z"/></g></svg>